<svg xmlns="http://www.w3.org/2000/svg" version="1.1" xmlns:xlink="http://www.w3.org/1999/xlink" xmlns:svgjs="http://svgjs.dev/svgjs" width="1500" height="371" viewBox="0 0 1500 371"><g transform="matrix(1,0,0,1,-0.9090909090909918,-0.06727718756832246)"><svg viewBox="0 0 396 98" data-background-color="#ffffff" preserveAspectRatio="xMidYMid meet" height="371" width="1500" xmlns="http://www.w3.org/2000/svg" xmlns:xlink="http://www.w3.org/1999/xlink"><g id="tight-bounds" transform="matrix(1,0,0,1,0.2400000000000091,0.01777133256521779)"><svg viewBox="0 0 395.52 97.96445733486958" height="97.96445733486958" width="395.52"><g><svg viewBox="0 0 539.2640011405185 133.56772156139104" height="97.96445733486958" width="395.52"><g transform="matrix(1,0,0,1,143.7440011405186,41.274364684173165)"><svg viewBox="0 0 395.52 51.01899219304471" height="51.01899219304471" width="395.52"><g id="textblocktransform"><svg viewBox="0 0 395.52 51.01899219304471" height="51.01899219304471" width="395.52" id="textblock"><g><svg viewBox="0 0 395.52 51.01899219304471" height="51.01899219304471" width="395.52"><g transform="matrix(1,0,0,1,0,0)"><svg width="395.52" viewBox="3.5 -35.75 281.78 36.35" height="51.01899219304471" data-palette-color="#ea3c12"><path d="M27.25 0.6L27.25 0.6Q24.55 0.6 22.4-0.65 20.25-1.9 19.03-4.08 17.8-6.25 17.8-9.15L17.8-9.15 17.8-26.55Q17.8-27.9 17.15-29 16.5-30.1 15.4-30.75 14.3-31.4 13-31.4L13-31.4Q11.7-31.4 10.63-30.75 9.55-30.1 8.93-29 8.3-27.9 8.3-26.55L8.3-26.55 8.3 0 3.5 0 3.5-25.9Q3.5-28.65 4.7-30.85 5.9-33.05 8.05-34.33 10.2-35.6 13-35.6L13-35.6Q15.85-35.6 18-34.33 20.15-33.05 21.35-30.85 22.55-28.65 22.55-25.9L22.55-25.9 22.55-8.5Q22.55-7.1 23.2-6.03 23.85-4.95 24.93-4.3 26-3.65 27.25-3.65L27.25-3.65Q28.5-3.65 29.55-4.3 30.6-4.95 31.23-6.03 31.85-7.1 31.85-8.5L31.85-8.5 31.85-25.9Q31.85-28.65 33.08-30.85 34.3-33.05 36.45-34.33 38.6-35.6 41.45-35.6L41.45-35.6Q44.25-35.6 46.4-34.33 48.55-33.05 49.75-30.85 50.95-28.65 50.95-25.9L50.95-25.9 50.95 0 46.15 0 46.15-26.55Q46.15-27.9 45.53-29 44.9-30.1 43.83-30.75 42.75-31.4 41.45-31.4L41.45-31.4Q40.1-31.4 39.03-30.75 37.95-30.1 37.3-29 36.65-27.9 36.65-26.55L36.65-26.55 36.65-9.15Q36.65-6.25 35.43-4.08 34.2-1.9 32.08-0.65 29.95 0.6 27.25 0.6ZM70.1 0.6L70.1 0.6Q66.2 0.6 63.2-1.18 60.2-2.95 58.45-5.98 56.7-9 56.7-12.75L56.7-12.75Q56.7-16.5 58.45-19.53 60.2-22.55 63.2-24.33 66.2-26.1 70.1-26.1L70.1-26.1Q74-26.1 77.02-24.33 80.05-22.55 81.77-19.53 83.5-16.5 83.5-12.75L83.5-12.75Q83.5-9 81.77-5.98 80.05-2.95 77.02-1.18 74 0.6 70.1 0.6ZM70.1-3.35L70.1-3.35Q72.75-3.35 74.7-4.6 76.65-5.85 77.75-7.98 78.85-10.1 78.85-12.75L78.85-12.75Q78.85-15.4 77.75-17.53 76.65-19.65 74.7-20.9 72.75-22.15 70.1-22.15L70.1-22.15Q67.5-22.15 65.52-20.9 63.55-19.65 62.45-17.53 61.35-15.4 61.35-12.75L61.35-12.75Q61.35-10.1 62.45-7.98 63.55-5.85 65.52-4.6 67.5-3.35 70.1-3.35ZM98.95 0.6L98.95 0.6Q97.25 0.6 95.87-0.38 94.5-1.35 93.84-3.15L93.84-3.15 85.55-25.5 90.59-25.5 98-4.85Q98.2-4.35 98.45-4.15 98.7-3.95 99-3.95L99-3.95Q99.34-3.95 99.57-4.15 99.8-4.35 100-4.85L100-4.85 107.45-25.5 112.4-25.5 104.09-3.15Q103.4-1.35 102.05-0.38 100.7 0.6 98.95 0.6ZM121.69 0L117.04 0 117.04-25.5 121.69-25.5 121.69 0ZM119.39-29.55L119.39-29.55Q118.14-29.55 117.22-30.48 116.29-31.4 116.29-32.65L116.29-32.65Q116.29-33.9 117.22-34.83 118.14-35.75 119.39-35.75L119.39-35.75Q120.64-35.75 121.57-34.83 122.49-33.9 122.49-32.65L122.49-32.65Q122.49-31.4 121.57-30.48 120.64-29.55 119.39-29.55ZM148.44 0L141.89 0Q137.69 0 134.44-1.58 131.19-3.15 129.37-6.03 127.54-8.9 127.54-12.75L127.54-12.75Q127.54-16.55 129.09-19.58 130.64-22.6 133.39-24.35 136.14-26.1 139.79-26.1L139.79-26.1Q143.74-26.1 146.37-24.4 148.99-22.7 150.29-19.83 151.59-16.95 151.59-13.4L151.59-13.4Q151.59-12.85 151.57-12.25 151.54-11.65 151.44-11.2L151.44-11.2 132.44-11.2Q132.69-8.85 133.99-7.23 135.29-5.6 137.32-4.78 139.34-3.95 141.79-3.95L141.79-3.95 148.44-3.95 148.44 0ZM132.39-14.45L132.39-14.45 146.94-14.45Q146.94-15.4 146.74-16.48 146.54-17.55 146.04-18.57 145.54-19.6 144.72-20.43 143.89-21.25 142.67-21.75 141.44-22.25 139.79-22.25L139.79-22.25Q138.04-22.25 136.72-21.58 135.39-20.9 134.44-19.78 133.49-18.65 132.99-17.25 132.49-15.85 132.39-14.45ZM170.64 0.6L170.64 0.6Q168.84 0.6 167.49-0.33 166.14-1.25 165.34-3.35L165.34-3.35 153.89-35 159.14-35 169.29-5.3Q169.54-4.65 169.84-4.25 170.14-3.85 170.64-3.85L170.64-3.85Q171.19-3.85 171.49-4.25 171.79-4.65 172.04-5.3L172.04-5.3 182.39-35 187.44-35 175.99-3.35Q175.24-1.3 173.86-0.35 172.49 0.6 170.64 0.6ZM210.69 0L204.14 0Q199.94 0 196.69-1.58 193.44-3.15 191.61-6.03 189.79-8.9 189.79-12.75L189.79-12.75Q189.79-16.55 191.34-19.58 192.89-22.6 195.64-24.35 198.39-26.1 202.04-26.1L202.04-26.1Q205.99-26.1 208.61-24.4 211.24-22.7 212.54-19.83 213.84-16.95 213.84-13.4L213.84-13.4Q213.84-12.85 213.81-12.25 213.79-11.65 213.69-11.2L213.69-11.2 194.69-11.2Q194.94-8.85 196.24-7.23 197.54-5.6 199.56-4.78 201.59-3.95 204.04-3.95L204.04-3.95 210.69-3.95 210.69 0ZM194.64-14.45L194.64-14.45 209.19-14.45Q209.19-15.4 208.99-16.48 208.79-17.55 208.29-18.57 207.79-19.6 206.96-20.43 206.14-21.25 204.91-21.75 203.69-22.25 202.04-22.25L202.04-22.25Q200.29-22.25 198.96-21.58 197.64-20.9 196.69-19.78 195.74-18.65 195.24-17.25 194.74-15.85 194.64-14.45ZM224.13 0L219.53 0 219.53-18.25Q219.53-21.65 221.46-23.58 223.38-25.5 226.78-25.5L226.78-25.5 232.03-25.5 232.03-21.55 227.63-21.55Q225.98-21.55 225.06-20.6 224.13-19.65 224.13-17.95L224.13-17.95 224.13 0ZM248.68 0L235.93 0 235.93-3.95 248.13-3.95Q249.33-3.95 250.21-4.48 251.08-5 251.53-5.85 251.98-6.7 251.98-7.65L251.98-7.65Q251.98-8.55 251.58-9.33 251.18-10.1 250.36-10.58 249.53-11.05 248.38-11.05L248.38-11.05 243.23-11.05Q240.78-11.05 238.96-11.88 237.13-12.7 236.11-14.3 235.08-15.9 235.08-18.2L235.08-18.2Q235.08-20.15 236.03-21.8 236.98-23.45 238.68-24.48 240.38-25.5 242.58-25.5L242.58-25.5 254.33-25.5 254.33-21.55 243.03-21.55Q241.48-21.55 240.58-20.6 239.68-19.65 239.68-18.35L239.68-18.35Q239.68-17.1 240.61-16.18 241.53-15.25 243.23-15.25L243.23-15.25 248.13-15.25Q250.88-15.25 252.76-14.38 254.63-13.5 255.61-11.85 256.58-10.2 256.58-7.8L256.58-7.8Q256.58-5.75 255.58-3.98 254.58-2.2 252.81-1.1 251.03 0 248.68 0L248.68 0ZM282.13 0L275.58 0Q271.38 0 268.13-1.58 264.88-3.15 263.05-6.03 261.23-8.9 261.23-12.75L261.23-12.75Q261.23-16.55 262.78-19.58 264.33-22.6 267.08-24.35 269.83-26.1 273.48-26.1L273.48-26.1Q277.43-26.1 280.05-24.4 282.68-22.7 283.98-19.83 285.28-16.95 285.28-13.4L285.28-13.4Q285.28-12.85 285.25-12.25 285.23-11.65 285.13-11.2L285.13-11.2 266.13-11.2Q266.38-8.85 267.68-7.23 268.98-5.6 271-4.78 273.03-3.95 275.48-3.95L275.48-3.95 282.13-3.95 282.13 0ZM266.08-14.45L266.08-14.45 280.63-14.45Q280.63-15.4 280.43-16.48 280.23-17.55 279.73-18.57 279.23-19.6 278.4-20.43 277.58-21.25 276.35-21.75 275.13-22.25 273.48-22.25L273.48-22.25Q271.73-22.25 270.4-21.58 269.08-20.9 268.13-19.78 267.18-18.65 266.68-17.25 266.18-15.85 266.08-14.45Z" opacity="1" transform="matrix(1,0,0,1,0,0)" fill="#ea3c12" class="wordmark-text-0" data-fill-palette-color="primary" id="text-0"></path></svg></g></svg></g></svg></g></svg></g><g><svg viewBox="0 0 131.6996415395534 133.56772156139104" height="133.56772156139104" width="131.6996415395534"><g><svg xmlns="http://www.w3.org/2000/svg" xmlns:xlink="http://www.w3.org/1999/xlink" version="1.1" x="0" y="0" viewBox="3.8000000000000016 3.400000000000003 56.399999999999984 57.19999999999999" style="enable-background:new 0 0 64 64;" xml:space="preserve" height="133.56772156139104" width="131.6996415395534" class="icon-icon-0" data-fill-palette-color="accent" id="icon-0"><g fill="#ea3c12" data-fill-palette-color="accent"><path d="M53.9 41.3c-1.4 0-2.7 0.4-3.7 1.2L42.8 35c1.4-1.7 2.3-4 2.3-6.4 0-2.4-0.9-4.6-2.3-6.4l6.6-6.6c1 0.8 2.3 1.2 3.7 1.2 3.5 0 6.3-2.8 6.3-6.3 0-3.5-2.8-6.3-6.3-6.3-3.5 0-6.3 2.8-6.3 6.3 0 1.4 0.4 2.7 1.2 3.7l-6.6 6.6c-1.7-1.4-4-2.3-6.4-2.3-2.5 0-4.8 0.9-6.5 2.4l-7.9-7.6c0.7-1 1.1-2.3 1.1-3.6 0-3.5-2.8-6.3-6.3-6.3-3.5 0-6.3 2.8-6.3 6.3 0 3.5 2.8 6.3 6.3 6.3 1.4 0 2.7-0.5 3.8-1.3l7.9 7.6c-1.4 1.7-2.2 3.9-2.2 6.2 0 2.4 0.9 4.6 2.3 6.4L13.4 48.9c-1-0.6-2.1-0.9-3.3-0.9-3.5 0-6.3 2.8-6.3 6.3 0 3.5 2.8 6.3 6.3 6.3 3.5 0 6.3-2.8 6.3-6.3 0-1.5-0.6-3-1.5-4.1l13.7-13.7c1.7 1.4 4 2.3 6.4 2.3 2.4 0 4.6-0.9 6.4-2.3l7.4 7.4c-0.8 1-1.2 2.3-1.2 3.7 0 3.5 2.8 6.3 6.3 6.3 3.5 0 6.3-2.8 6.3-6.3C60.2 44.1 57.4 41.3 53.9 41.3zM50.1 7.5c0.8-0.8 1.9-1.3 3-1.3 1.2 0 2.3 0.5 3 1.3 0.8 0.8 1.3 1.9 1.3 3 0 1.2-0.5 2.3-1.3 3-0.8 0.8-1.9 1.3-3 1.3-1.2 0-2.3-0.5-3-1.3-0.8-0.8-1.3-1.9-1.3-3C48.8 9.4 49.3 8.3 50.1 7.5zM18.4 12.8c-0.8 0.8-1.9 1.3-3 1.3-1.2 0-2.3-0.5-3-1.3-0.8-0.8-1.3-1.9-1.3-3 0-1.2 0.5-2.3 1.3-3 0.8-0.8 1.9-1.3 3-1.3 1.2 0 2.3 0.5 3 1.3 0.8 0.8 1.3 1.9 1.3 3C19.7 11 19.2 12 18.4 12.8zM13.1 57.3c-0.8 0.8-1.9 1.3-3 1.3-1.2 0-2.3-0.5-3-1.3-0.8-0.8-1.3-1.9-1.3-3 0-1.2 0.5-2.3 1.3-3 0.8-0.8 1.9-1.3 3-1.3 1.2 0 2.3 0.5 3 1.3 0.8 0.8 1.3 1.9 1.3 3C14.4 55.4 13.9 56.5 13.1 57.3zM40.7 34.4c-1.5 1.5-3.5 2.4-5.7 2.4-2.2 0-4.2-0.9-5.7-2.4-1.5-1.5-2.4-3.5-2.4-5.7 0-2.2 0.9-4.2 2.4-5.7 1.5-1.5 3.5-2.4 5.7-2.4 2.2 0 4.2 0.9 5.7 2.4 1.5 1.5 2.4 3.5 2.4 5.7C43.1 30.9 42.2 32.9 40.7 34.4zM57 50.6c-0.8 0.8-1.9 1.3-3 1.3-1.2 0-2.3-0.5-3-1.3-0.8-0.8-1.3-1.9-1.3-3 0-1.2 0.5-2.3 1.3-3 0.8-0.8 1.9-1.3 3-1.3 1.2 0 2.3 0.5 3 1.3 0.8 0.8 1.3 1.9 1.3 3C58.2 48.8 57.7 49.8 57 50.6z" fill="#ea3c12" data-fill-palette-color="accent"></path></g></svg></g></svg></g></svg></g><defs></defs></svg><rect width="395.52" height="97.96445733486958" fill="none" stroke="none" visibility="hidden"></rect></g></svg></g></svg>